<svg width="16" height="11" viewBox="0 0 16 11" fill="none" xmlns="http://www.w3.org/2000/svg">
<path d="M14.8571 5.14286C13.9524 3.7381 12.8185 2.6875 11.4554 1.99107C11.8185 2.61012 12 3.27976 12 4C12 5.10119 11.6086 6.04315 10.8259 6.82589C10.0432 7.60863 9.10119 8 8 8C6.89881 8 5.95685 7.60863 5.17411 6.82589C4.39137 6.04315 4 5.10119 4 4C4 3.27976 4.18155 2.61012 4.54464 1.99107C3.18155 2.6875 2.04762 3.7381 1.14286 5.14286C1.93452 6.36309 2.92708 7.33482 4.12054 8.05803C5.31399 8.78125 6.60714 9.14286 8 9.14286C9.39286 9.14286 10.686 8.78125 11.8795 8.05803C13.0729 7.33482 14.0655 6.36309 14.8571 5.14286ZM8.42857 1.71429C8.42857 1.59524 8.3869 1.49405 8.30357 1.41071C8.22024 1.32738 8.11905 1.28571 8 1.28571C7.25595 1.28571 6.61756 1.55208 6.08482 2.08482C5.55208 2.61756 5.28571 3.25595 5.28571 4C5.28571 4.11905 5.32738 4.22024 5.41071 4.30357C5.49405 4.3869 5.59524 4.42857 5.71429 4.42857C5.83333 4.42857 5.93452 4.3869 6.01786 4.30357C6.10119 4.22024 6.14286 4.11905 6.14286 4C6.14286 3.4881 6.32441 3.0506 6.6875 2.6875C7.0506 2.3244 7.4881 2.14286 8 2.14286C8.11905 2.14286 8.22024 2.10119 8.30357 2.01786C8.3869 1.93452 8.42857 1.83333 8.42857 1.71429ZM16 5.14286C16 5.34524 15.9405 5.55059 15.8214 5.75893C14.9881 7.12798 13.8676 8.2247 12.4598 9.04911C11.0521 9.87351 9.56548 10.2857 8 10.2857C6.43452 10.2857 4.94792 9.87202 3.54018 9.04464C2.13244 8.21726 1.0119 7.12202 0.178571 5.75893C0.0595238 5.55059 0 5.34524 0 5.14286C0 4.94048 0.0595238 4.73512 0.178571 4.52679C1.0119 3.16369 2.13244 2.06845 3.54018 1.24107C4.94792 0.41369 6.43452 0 8 0C9.56548 0 11.0521 0.41369 12.4598 1.24107C13.8676 2.06845 14.9881 3.16369 15.8214 4.52679C15.9405 4.73512 16 4.94048 16 5.14286Z" fill="#ADADAD"/>
</svg>
