<svg width="28" height="29" viewBox="0 0 28 29" fill="none" xmlns="http://www.w3.org/2000/svg">
<ellipse cx="14" cy="9.66665" rx="4.66667" ry="4.83333" fill="#F2F2F2" stroke="#F2F2F2" stroke-width="1.2" stroke-linecap="round"/>
<path fill-rule="evenodd" clip-rule="evenodd" d="M18.8961 19.75C18.1558 19.4194 17.3633 19.1648 16.5379 18.993C14.8747 18.6468 13.1252 18.6468 11.4621 18.993C9.79929 19.3391 8.27006 20.0215 7.03226 20.983C5.79396 21.9449 4.88422 23.1582 4.41748 24.5112C4.30942 24.8245 4.47577 25.166 4.78903 25.2741C5.10229 25.3822 5.44383 25.2158 5.55189 24.9026C5.93322 23.7971 6.68973 22.7685 7.7684 21.9307C8.84756 21.0924 10.2044 20.4805 11.7066 20.1678C12.8944 19.9206 14.1329 19.8689 15.3418 20.0127C15.6341 19.8455 15.9725 19.75 16.3333 19.75L18.8961 19.75Z" fill="#F2F2F2"/>
<path d="M21 16.9167L21 26.5834" stroke="#F2F2F2" stroke-width="1.2" stroke-linecap="round"/>
<path d="M25.6667 21.75L16.3334 21.75" stroke="#F2F2F2" stroke-width="1.2" stroke-linecap="round"/>
</svg>
