<svg width="29" height="29" viewBox="0 0 29 29" fill="none" xmlns="http://www.w3.org/2000/svg">
<mask id="mask0_11_25" style="mask-type:alpha" maskUnits="userSpaceOnUse" x="3" y="3" width="23" height="23">
<path d="M3.625 11.625C3.625 7.85376 3.625 5.96815 4.79657 4.79657C5.96815 3.625 7.85376 3.625 11.625 3.625H17.375C21.1462 3.625 23.0319 3.625 24.2034 4.79657C25.375 5.96815 25.375 7.85376 25.375 11.625V17.375C25.375 21.1462 25.375 23.0319 24.2034 24.2034C23.0319 25.375 21.1462 25.375 17.375 25.375H11.625C7.85376 25.375 5.96815 25.375 4.79657 24.2034C3.625 23.0319 3.625 21.1462 3.625 17.375V11.625Z" fill="black"/>
</mask>
<g mask="url(#mask0_11_25)">
<path d="M15.5853 17.8689L5.20763 6.45341C4.96925 6.19118 4.63131 6.04169 4.27692 6.04169C2.68944 6.04169 1.49881 4.58935 1.81014 3.0327L2.29232 0.621786C2.37313 0.217753 2.41353 0.0157359 2.46548 -0.159247C2.93129 -1.72821 4.30591 -2.85513 5.93575 -3.00419C6.11753 -3.02081 6.32354 -3.02081 6.73558 -3.02081H18.9798C22.8403 -3.02081 24.7706 -3.02081 25.9481 -1.81275C27.1256 -0.604697 27.0761 1.32495 26.9771 5.18425L26.5833 20.5417L21.9642 16.6924C21.3378 16.1704 21.0246 15.9094 20.7233 15.7912C19.9824 15.5006 19.1397 15.6768 18.5775 16.2401C18.3488 16.4691 18.1665 16.8338 17.8018 17.5631C17.5948 17.9771 17.4913 18.1841 17.365 18.3045C17.0535 18.6016 16.5868 18.666 16.2065 18.4643C16.0524 18.3826 15.8967 18.2114 15.5853 17.8689Z" fill="white" stroke="white" stroke-width="1.2" stroke-linecap="round"/>
</g>
<path d="M3.625 15.7083V11.625C3.625 7.85376 3.625 5.96815 4.79657 4.79657C5.96815 3.625 7.85376 3.625 11.625 3.625H17.375C21.1462 3.625 23.0319 3.625 24.2034 4.79657C25.375 5.96815 25.375 7.85376 25.375 11.625V17.375C25.375 21.1462 25.375 23.0319 24.2034 24.2034C23.0319 25.375 21.1462 25.375 17.375 25.375H14.5" stroke="white" stroke-width="1.2"/>
<circle cx="19.9375" cy="9.0625" r="1.8125" fill="#3731C5"/>
<path d="M9.66666 19.3333V18.7333H10.2667V19.3333H9.66666ZM3.99981 24.6352C3.74105 24.8422 3.36347 24.8002 3.15647 24.5415C2.94946 24.2827 2.99142 23.9051 3.25017 23.6981L3.99981 24.6352ZM9.06666 25.375V19.3333H10.2667V25.375H9.06666ZM9.66666 19.9333H3.62499V18.7333H9.66666V19.9333ZM10.0415 19.8018L3.99981 24.6352L3.25017 23.6981L9.29184 18.8648L10.0415 19.8018Z" fill="white"/>
</svg>
